<?xml version="1.0" standalone="no"?>
<!DOCTYPE svg PUBLIC "-//W3C//DTD SVG 20010904//EN"
 "http://www.w3.org/TR/2001/REC-SVG-20010904/DTD/svg10.dtd">
<svg version="1.0" xmlns="http://www.w3.org/2000/svg"
 width="431.000000pt" height="431.000000pt" viewBox="0 0 431.000000 431.000000"
 preserveAspectRatio="xMidYMid meet">
<metadata>
Created by potrace 1.16, written by Peter Selinger 2001-2019
</metadata>
<g transform="translate(0.000000,431.000000) scale(0.100000,-0.100000)"
fill="#000000" stroke="none">
<path d="M2005 3491 c-91 -26 -163 -69 -236 -141 -119 -118 -169 -246 -169
-431 l0 -99 -33 -14 c-121 -50 -127 -229 -9 -281 37 -17 40 -21 45 -70 6 -64
26 -103 73 -149 49 -48 109 -66 218 -66 71 0 99 -4 134 -21 62 -30 95 -85 100
-164 4 -56 2 -64 -17 -74 -32 -17 -54 -68 -47 -107 9 -44 57 -84 103 -84 96 0
132 145 46 191 -23 13 -25 18 -21 75 3 48 10 70 31 97 53 70 77 80 211 87 123
7 145 13 205 58 40 30 81 113 81 167 1 37 4 42 42 60 55 26 80 62 85 122 7 71
-23 128 -83 154 l-44 20 0 106 c0 184 -46 301 -164 419 -77 77 -157 124 -253
149 -76 20 -222 18 -298 -4z m256 -45 c195 -42 353 -200 395 -395 7 -36 14
-87 14 -113 l0 -48 -46 0 c-37 0 -51 -5 -75 -29 l-29 -29 0 -161 c0 -98 4
-170 11 -185 15 -31 72 -60 105 -52 29 8 30 4 3 -43 -38 -68 -76 -84 -209 -92
-138 -8 -195 -29 -239 -89 l-27 -38 -32 38 c-48 58 -107 82 -215 87 -133 6
-154 11 -193 45 -30 27 -64 75 -64 92 0 3 13 3 29 0 33 -7 85 17 101 45 6 11
10 92 10 189 l0 169 -26 27 c-21 20 -37 26 -70 26 l-44 0 0 73 c0 185 111 359
282 441 114 55 203 66 319 42z m-529 -623 c16 -14 18 -33 18 -159 0 -150 -7
-174 -49 -174 -36 0 -41 20 -41 177 0 134 2 153 18 162 24 14 33 13 54 -6z
m922 -5 c24 -34 23 -284 -1 -310 -22 -24 -49 -23 -67 4 -13 18 -16 51 -16 155
0 120 2 135 20 153 26 26 45 25 64 -2z"/>
<path d="M2064 3395 c-160 -35 -287 -150 -335 -306 -10 -33 -19 -78 -19 -100
0 -34 3 -39 23 -39 21 0 25 7 35 62 25 135 108 243 230 301 61 29 76 32 162
32 86 0 101 -3 162 -32 37 -17 87 -50 112 -73 56 -52 112 -160 121 -235 7 -53
9 -55 37 -55 29 0 29 0 23 48 -28 207 -182 370 -381 402 -74 12 -94 12 -170
-5z"/>
<path d="M2000 2725 c0 -216 2 -246 15 -241 8 3 105 58 216 122 161 94 198
119 187 129 -15 14 -374 220 -400 230 -17 7 -18 -9 -18 -240z"/>
<path d="M1400 1575 l0 -45 -50 0 -50 0 0 40 c0 36 -3 40 -24 40 -22 0 -24 -3
-19 -40 l6 -40 -47 0 c-43 0 -46 -2 -46 -26 0 -26 1 -26 46 -19 l47 7 -5 -56
c-4 -53 -4 -56 19 -56 21 0 23 4 23 55 l0 55 50 0 50 0 0 -40 c0 -59 -24 -107
-65 -131 -39 -23 -42 -31 -20 -49 36 -30 125 72 125 146 0 16 3 39 6 52 6 21
11 23 45 17 37 -6 39 -5 39 19 0 24 -4 26 -40 26 l-40 0 0 45 c0 41 -2 45 -25
45 -23 0 -25 -4 -25 -45z"/>
<path d="M1839 1584 c-36 -40 -134 -101 -192 -120 -64 -20 -70 -26 -54 -48 12
-16 17 -15 85 12 l72 30 0 -89 c0 -88 0 -89 25 -89 l25 0 0 108 c0 107 0 108
28 124 42 25 75 65 69 82 -9 23 -30 19 -58 -10z"/>
<path d="M2075 1435 c0 -164 0 -165 23 -165 21 0 22 4 22 85 0 47 4 85 9 85 5
0 40 -13 77 -29 68 -29 83 -28 84 5 0 11 -61 41 -132 64 -38 11 -38 12 -38 66
0 49 -2 54 -22 54 -23 0 -23 -1 -23 -165z"/>
<path d="M2970 1445 c0 -173 3 -180 60 -150 42 22 120 94 120 111 0 29 -23 23
-71 -20 -28 -25 -56 -46 -61 -46 -6 0 -8 50 -6 130 3 129 3 130 -19 130 -23 0
-23 -1 -23 -155z"/>
<path d="M2540 1519 l0 -32 -55 7 -55 6 0 -60 c0 -53 2 -60 20 -60 17 0 20 7
20 40 l0 40 90 0 c100 0 101 0 71 -66 -21 -46 -56 -77 -107 -96 -35 -13 -39
-25 -12 -41 21 -14 104 29 134 68 12 16 30 58 40 93 21 76 15 84 -58 75 l-48
-6 0 32 c0 24 -4 31 -20 31 -16 0 -20 -7 -20 -31z"/>
</g>
</svg>
