<?xml version="1.0" standalone="no"?>
<!DOCTYPE svg PUBLIC "-//W3C//DTD SVG 20010904//EN"
 "http://www.w3.org/TR/2001/REC-SVG-20010904/DTD/svg10.dtd">
<svg version="1.0" xmlns="http://www.w3.org/2000/svg"
 width="370.000000pt" height="89.000000pt" viewBox="0 0 370.000000 89.000000"
 preserveAspectRatio="xMidYMid meet">
<metadata>
Created by potrace 1.16, written by Peter Selinger 2001-2019
</metadata>
<g transform="translate(0.000000,89.000000) scale(0.100000,-0.100000)"
fill="#000000" stroke="none">
<path d="M258 710 l5 -70 -77 0 -76 0 0 -40 0 -40 76 0 76 0 -4 -90 -4 -90 43
0 43 0 0 90 0 90 90 0 c103 0 96 9 80 -103 -17 -114 -59 -173 -155 -212 l-38
-17 35 -35 36 -35 45 26 c107 63 150 143 163 297 l7 79 68 0 69 0 0 40 0 40
-70 0 -70 0 0 70 0 70 -44 0 -43 0 5 -70 5 -70 -92 0 -91 0 0 70 0 70 -44 0
-43 0 5 -70z"/>
<path d="M1300 734 c-91 -93 -282 -199 -423 -234 -26 -7 -47 -14 -47 -16 0
-11 44 -74 51 -74 13 0 180 65 218 84 l31 17 0 -166 0 -165 45 0 45 0 0 189 0
189 90 71 c49 40 92 75 94 80 3 4 -9 22 -27 39 l-33 32 -44 -46z"/>
<path d="M1695 465 l0 -295 47 0 46 0 -5 155 -6 155 101 -40 c56 -22 115 -46
131 -55 17 -8 34 -15 38 -15 9 0 33 57 33 77 0 13 -72 45 -200 89 l-95 32 2
96 2 96 -47 0 -47 0 0 -295z"/>
<path d="M3278 493 c-3 -257 -2 -269 17 -285 11 -10 24 -17 29 -18 39 -1 277
184 276 215 -1 6 -11 23 -24 38 l-23 29 -56 -59 c-31 -32 -75 -69 -97 -82
l-41 -23 3 226 3 226 -42 0 -42 0 -3 -267z"/>
<path d="M3090 643 c-1 -197 -25 -286 -102 -367 l-39 -41 28 -22 c15 -13 33
-23 39 -23 20 0 85 80 111 137 29 63 41 145 45 306 l3 117 -42 0 -43 0 0 -107z"/>
<path d="M2515 620 l7 -50 -99 0 -98 0 3 -105 3 -105 40 0 39 0 0 70 0 70 149
0 149 0 -10 -42 c-24 -110 -100 -192 -206 -225 -31 -9 -59 -18 -61 -20 -7 -5
50 -73 62 -73 29 0 141 63 186 105 56 52 93 129 115 238 13 66 13 68 -8 79
-12 7 -55 11 -103 9 l-83 -2 0 50 0 51 -46 0 -46 0 7 -50z"/>
</g>
</svg>
